<svg width="309" height="308" viewBox="0 0 309 308" fill="none" xmlns="http://www.w3.org/2000/svg">
<g filter="url(#filter0_d_103_2)">
<g clip-path="url(#clip0_103_2)">
<rect x="33.2499" y="32.8458" width="242.5" height="242.5" rx="121.25" fill="url(#paint0_linear_103_2)"/>
<g filter="url(#filter1_d_103_2)">
<path fill-rule="evenodd" clip-rule="evenodd" d="M-1.26296 73.24L9.2325 63.8222C13.8578 59.6718 11.161 52.0012 4.95608 51.6583C2.48036 51.5216 0.117921 52.7085 -1.2501 54.7764L-2.73743 57.0247C-3.53404 58.2289 -3.81966 59.7002 -3.53147 61.115L-3.34881 62.0116C-2.97475 63.848 -3.85597 65.7111 -5.51281 66.5869L-5.79644 66.7368C-8.22496 68.0204 -8.66262 71.3158 -6.65336 73.1888C-5.14078 74.5988 -2.80204 74.621 -1.26296 73.24ZM-7.31936 60.3654L-8.34617 58.0032C-9.09055 56.2907 -11.2251 55.7017 -12.7424 56.7901C-13.5145 57.344 -13.9701 58.2378 -13.9648 59.188L-13.9504 61.7637C-13.9401 63.602 -12.4936 65.1112 -10.6573 65.1993C-8.09748 65.322 -6.29774 62.7157 -7.31936 60.3654ZM-22.7826 66.5769L-21.2736 64.4894C-20.1797 62.9762 -20.7609 60.8395 -22.4706 60.0888C-23.3407 59.7069 -24.3419 59.7704 -25.1567 60.2593L-27.3653 61.5845C-28.9418 62.5303 -29.5029 64.5441 -28.6427 66.1688C-27.4436 68.4337 -24.2839 68.6537 -22.7826 66.5769ZM51.0511 174.407V173.717C51.0511 168.272 53.621 163.146 57.9842 159.888L59.7589 158.563C64.8741 154.745 71.4125 153.375 77.6303 154.819L79.1994 155.184L93.8728 158.578C94.3498 158.689 94.8434 158.708 95.3276 158.636L98.1422 158.215C100.529 157.859 101.298 154.798 99.3631 153.355C98.676 152.843 98.2712 152.036 98.2712 151.179V150.992C98.2712 149.547 99.2729 148.295 100.682 147.978L104.285 147.169C106.494 146.672 107.734 144.317 106.894 142.215C106.335 140.819 104.983 139.903 103.479 139.903H101.871C99.6524 139.903 97.6117 141.117 96.5524 143.066L95.6042 144.811C95.4676 145.062 95.3128 145.303 95.141 145.532C92.6307 148.879 87.5291 148.616 85.3765 145.029L85.0084 144.415C83.437 141.796 80.2281 140.66 77.359 141.708L68.9249 144.787C68.1956 145.053 67.5088 145.424 66.886 145.887L61.8442 149.639C59.9265 151.066 57.1743 150.194 56.4291 147.923C55.9077 146.334 56.5831 144.598 58.0412 143.78L59.5872 142.912C61.1273 142.047 62.0806 140.419 62.0806 138.652C62.0806 137.124 62.7957 135.684 64.013 134.761L71.1759 129.327C71.7677 128.878 72.2455 128.296 72.5705 127.628C73.5004 125.716 75.5913 124.66 77.6818 125.046L81.1294 125.682C84.0157 126.214 86.914 124.814 88.291 122.222L88.9954 120.896C89.5543 119.844 89.5805 118.589 89.0659 117.514C87.7595 114.786 83.9277 114.645 82.4241 117.27L81.1621 119.473C80.1732 121.2 77.814 121.514 76.4072 120.107L76.2367 119.937C75.7796 119.48 75.1597 119.223 74.5133 119.223C73.1673 119.223 72.0761 118.132 72.0761 116.786V113.053C72.0761 111.761 72.482 110.501 73.2364 109.452L79.3317 100.974C82.5942 96.4361 88.2556 94.2913 93.7059 95.5282L99.3754 96.8149C100.337 97.0332 101.128 97.7149 101.485 98.6342L101.524 98.7338C102.081 100.166 101.406 101.783 99.9949 102.393L99.233 102.722C98.6492 102.975 98.2712 103.55 98.2712 104.186C98.2712 105.067 98.9852 105.781 99.8659 105.781H101.734C103.392 105.781 104.818 104.605 105.133 102.976L105.396 101.62C105.75 99.7912 107.066 98.2973 108.836 97.716L118.175 94.6485C120.355 93.9323 121.973 92.0868 122.398 89.8317C122.882 87.2605 124.906 85.2567 127.482 84.798L128.462 84.6235C130.466 84.2666 132.249 83.1346 133.424 81.4727L142.831 68.1697C144.935 65.1945 148.602 63.7485 152.171 64.4868L152.941 64.6462C155.068 65.0862 156.897 66.432 157.949 68.3315C159.711 71.5124 163.513 72.9564 166.942 71.7478L169.705 70.7743C171.83 70.0255 174.18 70.2776 176.098 71.4602C178.469 72.9229 181.459 72.9411 183.848 71.5074L187.264 69.4578C189.973 67.8323 193.152 67.1705 196.285 67.5799L206.323 68.8917C209.818 69.3484 213.37 68.8225 216.582 67.3731C219.538 66.0395 222.786 65.4859 226.016 65.7651L237.261 66.7369C238.765 66.8668 240.075 67.8112 240.674 69.1961C241.215 70.4482 241.099 71.8875 240.364 73.0364L239.519 74.356C238.463 76.0059 238.142 78.0208 238.631 79.9175L239.073 81.6311C239.487 83.2344 239.537 84.9099 239.22 86.5352L238.344 91.0269C238.045 92.556 236.975 93.8208 235.516 94.3678C233.641 95.0709 232.46 96.9315 232.62 98.9274L233.836 114.045C233.905 114.893 233.31 115.65 232.47 115.785C231.674 115.912 230.904 115.438 230.66 114.669L228.072 106.527C226.66 102.086 222.068 99.4796 217.531 100.544C215.453 101.032 213.619 102.248 212.362 103.972L211.341 105.371C208.737 108.942 208.031 113.556 209.449 117.742L212.444 126.579C213.596 129.98 212.809 133.738 210.39 136.391L208.653 138.296C207.727 139.312 207.314 140.694 207.531 142.051L207.71 143.166C208.123 145.75 205.82 147.948 203.258 147.414C200.588 146.858 198.24 149.258 198.856 151.916L200.638 159.605C201.409 162.935 200.179 166.409 197.484 168.512L194.3 170.996C192.5 172.401 191.448 174.556 191.448 176.84V180.927C191.448 182.763 189.959 184.251 188.123 184.251H185.783C184.808 184.251 184.094 185.167 184.33 186.112C184.728 187.702 182.647 188.683 181.673 187.364L173.25 175.96C172.064 174.355 169.931 173.775 168.096 174.558L165.288 175.755C163.556 176.495 162.133 177.81 161.259 179.478L157.135 187.351C156.743 188.099 155.706 188.183 155.199 187.508L145.908 175.145C142.963 171.225 138.759 168.437 134.002 167.247L128.715 165.518C126.772 164.882 125.233 167.22 126.586 168.754C126.779 168.972 127.017 169.146 127.284 169.264L127.459 169.34C129.383 170.185 129.777 172.742 128.197 174.128L125.715 176.304C124.196 177.636 122.021 177.916 120.214 177.012L118.074 175.942C114.564 174.187 110.692 177.572 111.962 181.285C112.569 183.059 114.237 184.251 116.112 184.251H116.232C119.518 184.251 121.723 187.625 120.403 190.634L115.053 202.832C114.742 203.541 114.494 204.276 114.311 205.028L111.859 215.124C111.082 218.325 109.625 221.322 107.587 223.911L97.8226 236.319C96.2923 238.264 93.9545 239.399 91.4799 239.399C89.2858 239.399 87.1862 238.506 85.6646 236.925L83.5031 234.679C80.7419 231.81 79.1994 227.983 79.1994 224.001V212.285L77.9833 202.404C77.5828 199.15 75.9896 196.16 73.5118 194.013C71.5272 192.293 69.0762 191.202 66.4701 190.878L65.4953 190.757C57.245 189.731 51.0511 182.72 51.0511 174.407ZM-13.2373 78.7698L-14.9971 81.2076C-16.7495 83.6352 -20.4418 83.3783 -21.8412 80.7313C-22.8434 78.8356 -22.1891 76.4871 -20.351 75.3827L-17.7738 73.8342C-16.8217 73.2622 -15.6513 73.1878 -14.6345 73.6348C-12.6404 74.5115 -11.9623 77.0036 -13.2373 78.7698ZM-8.57965 82.6555L-10.3547 83.9046C-11.1131 84.4383 -11.5643 85.3076 -11.5643 86.2349C-11.5643 87.241 -11.0337 88.1725 -10.1683 88.6857L-5.78716 91.2839C-3.24338 92.7924 -1.68371 95.5306 -1.68371 98.4881V98.9739C-1.68371 100.267 -1.31073 101.534 -0.609473 102.62L0.399232 104.184C1.80093 106.357 4.67172 107.028 6.89195 105.703C8.74831 104.596 9.63496 102.384 9.05767 100.3L6.10558 89.647C5.24854 86.5542 3.0369 84.016 0.0905319 82.7437L-1.7461 81.9506C-3.99151 80.981 -6.57945 81.248 -8.57965 82.6555ZM31.6224 56.7428L14.27 66.9207C12.7854 67.7915 11.8733 69.3837 11.8733 71.1049C11.8733 72.3455 12.3487 73.539 13.2017 74.4399L16.2312 77.6396C19.8959 81.5102 21.3794 86.9587 20.1828 92.153L17.639 103.195C17.2632 104.827 17.6619 106.54 18.7193 107.838C20.5929 110.137 23.9665 110.504 26.2909 108.661L37.8436 99.5031C41.9685 96.2332 44.6669 91.4929 45.3728 86.2767L45.9114 82.2975C46.1961 80.1934 46.7712 78.1389 47.6201 76.1927L49.7771 71.2474C50.6106 69.3362 50.9077 67.2341 50.6362 65.1668C49.9923 60.2629 46.2781 56.3237 41.4205 55.3926L40.4938 55.215C37.4492 54.6315 34.2964 55.1744 31.6224 56.7428ZM-98.8219 102.965C-100.411 94.4428 -99.0081 76.826 -81.9544 69.3142C-81.6003 69.1582 -81.2462 68.9936 -80.8908 68.8285C-80.8908 68.8285 -80.8908 68.8285 -80.8908 68.8285V68.8285C-80.8908 68.8285 -80.8908 68.8285 -80.8908 68.8285C-79.3969 68.1343 -77.8816 67.4302 -76.2592 67.3129C-72.8997 67.0702 -67.6716 68.8927 -61.6808 76.5062C-61.4631 76.7829 -61.2566 77.0504 -61.057 77.3089L-61.0569 77.309C-59.6243 79.1643 -58.5468 80.5597 -56.2436 81.5983C-51.8641 83.5731 -48.937 79.6356 -45.9962 75.6798C-43.0636 71.735 -40.1175 67.7719 -35.7041 69.6355C-34.4697 70.1567 -32.9455 71.1912 -31.0778 72.8746C-29.1222 74.6374 -27.7134 76.9305 -26.7193 79.3684L-24.6127 84.5345C-23.8352 86.4414 -22.3305 87.9603 -20.431 88.7558C-15.3966 90.8643 -14.0618 97.3778 -17.861 101.297L-22.6649 106.252C-25.7116 109.394 -25.5691 114.43 -22.3497 117.395L-20.5098 119.09C-17.7594 121.623 -13.366 120.931 -11.5278 117.675C-9.4498 113.994 -4.25908 113.699 -1.77861 117.122L2.22532 122.647C5.33855 126.943 4.63056 132.909 0.598482 136.357L-22.9342 156.48C-24.1035 157.48 -24.7768 158.942 -24.7768 160.481C-24.7768 164.211 -28.5509 166.758 -32.0104 165.361L-34.4361 164.382C-38.6629 162.675 -43.2742 165.786 -43.2742 170.345C-43.2742 172.563 -42.1308 174.625 -40.249 175.8L-29.3319 182.615C-25.5527 184.974 -20.9535 185.63 -16.6656 184.42C-12.391 183.215 -7.80634 183.862 -4.03292 186.205L17.8249 199.774C23.2265 203.127 24.8777 210.23 21.5093 215.622L0.804742 248.766C-0.312773 250.555 -1.17865 252.489 -1.76849 254.515L-3.38221 260.055C-3.99785 262.169 -3.97597 264.417 -3.3193 266.518L-1.37677 272.734C-1.08064 273.682 -1.43192 274.712 -2.24526 275.282C-3.35631 276.059 -4.89657 275.701 -5.54989 274.512L-13.1038 260.771C-14.4304 258.357 -15.126 255.648 -15.126 252.894V228.911C-15.126 223.947 -17.179 219.204 -20.7982 215.807L-22.981 213.758C-26.2331 210.706 -27.6436 206.17 -26.6962 201.812C-25.5473 196.527 -27.8744 191.096 -32.4926 188.282L-47.6968 179.018C-48.869 178.303 -49.863 177.331 -50.6031 176.175L-61.4725 159.198C-62.1403 158.154 -63.7434 158.488 -63.9391 159.711C-64.1587 161.084 -66.0604 161.266 -66.5368 159.96L-70.9944 147.741C-71.275 146.971 -71.351 146.143 -71.2151 145.335L-68.8347 131.197C-68.0513 126.544 -68.7193 121.763 -70.7479 117.503L-76.8099 104.773C-78.2212 101.809 -81.2111 99.9214 -84.4937 99.9214H-84.7789C-86.4022 99.9214 -87.9834 100.439 -89.2929 101.398L-93.9916 104.84C-95.6021 106.02 -97.8924 105.376 -98.6525 103.53C-98.7283 103.346 -98.7855 103.161 -98.8219 102.965ZM195.116 194.082L194.338 194.999C192.779 196.835 192.922 199.567 194.662 201.23L195.417 201.951C196.226 202.724 197.397 202.987 198.459 202.633C199.692 202.222 200.524 201.068 200.524 199.767V196.068C200.524 194.945 199.911 193.912 198.925 193.374C197.648 192.678 196.058 192.974 195.116 194.082ZM194.32 232.018V234.602C194.32 239.535 198.32 243.535 203.253 243.535C204.261 243.535 205.261 243.364 206.211 243.031L207.658 242.523C210.02 241.695 212.603 241.759 214.921 242.705C216.261 243.252 217.469 244.077 218.468 245.125L222.574 249.437C223.411 250.315 224.444 250.981 225.589 251.38C228.994 252.567 232.764 251.208 234.63 248.123L236.225 245.485C237.003 244.198 237.52 242.769 237.745 241.282L238.716 234.876C238.983 233.116 238.656 231.317 237.787 229.763L231.156 217.901C230.256 216.291 227.868 216.529 227.304 218.286C227.024 219.16 226.212 219.752 225.295 219.752H224.728C223.567 219.752 222.52 219.057 222.068 217.988L221.675 217.056C220.636 214.593 217.663 213.613 215.363 214.976L208.678 218.937C207.766 219.478 206.781 219.886 205.754 220.15L202.974 220.863C197.881 222.17 194.32 226.761 194.32 232.018ZM179.383 197.892L182.958 203.521C183.38 204.185 184.112 204.587 184.898 204.587C186.168 204.587 187.197 203.558 187.197 202.288V202.083C187.197 201.475 186.976 200.888 186.575 200.432L182.379 195.648C181.83 195.022 180.933 194.832 180.177 195.183C179.149 195.661 178.775 196.935 179.383 197.892ZM115.33 222.695L118.971 217.11C119.591 216.16 120.905 215.972 121.766 216.71C122.398 217.253 122.598 218.147 122.255 218.907L119.64 224.707C119.391 225.261 118.948 225.706 118.395 225.957L118.208 226.043C117.053 226.569 115.69 226.058 115.164 224.903C114.838 224.187 114.9 223.354 115.33 222.695ZM226.184 207.397L226.649 207.825C227.359 208.476 228.288 208.838 229.252 208.838H231.461C232.424 208.838 233.375 209.051 234.246 209.463L237.751 211.12C238.611 211.527 239.639 211.251 240.181 210.469C240.801 209.573 240.565 208.343 239.657 207.741L230.612 201.741C230.021 201.349 229.328 201.14 228.62 201.14C225.335 201.14 223.764 205.176 226.184 207.397ZM252.681 264.041L247.385 268.523C246.78 269.035 246.582 269.883 246.898 270.61C247.252 271.425 248.149 271.858 249.008 271.629L250.648 271.192C251.913 270.855 252.913 269.884 253.288 268.63L254.335 265.124C254.628 264.141 253.464 263.379 252.681 264.041ZM257.073 258.2L259.089 251.562C259.387 250.581 260.779 250.589 261.066 251.573L262.089 255.086C262.455 256.344 262.142 257.701 261.262 258.671L260.122 259.929C259.525 260.587 258.536 260.71 257.797 260.217C257.136 259.778 256.842 258.958 257.073 258.2Z" fill="#A7CF75"/>
</g>
<g filter="url(#filter2_d_103_2)">
<path fill-rule="evenodd" clip-rule="evenodd" d="M362.487 73.24L372.982 63.8222C377.608 59.6718 374.911 52.0012 368.706 51.6583C366.23 51.5216 363.868 52.7085 362.5 54.7764L361.013 57.0247C360.216 58.2289 359.93 59.7002 360.218 61.115L360.401 62.0116C360.775 63.848 359.894 65.7111 358.237 66.5869L357.953 66.7368C355.525 68.0204 355.087 71.3158 357.097 73.1888C358.609 74.5988 360.948 74.621 362.487 73.24ZM356.431 60.3654L355.404 58.0032C354.659 56.2907 352.525 55.7017 351.008 56.7901C350.235 57.344 349.78 58.2378 349.785 59.188L349.8 61.7637C349.81 63.602 351.256 65.1112 353.093 65.1993C355.652 65.322 357.452 62.7157 356.431 60.3654ZM340.967 66.5769L342.476 64.4894C343.57 62.9762 342.989 60.8395 341.279 60.0888C340.409 59.7069 339.408 59.7704 338.593 60.2593L336.385 61.5845C334.808 62.5303 334.247 64.5441 335.107 66.1688C336.306 68.4337 339.466 68.6537 340.967 66.5769ZM414.801 174.407V173.717C414.801 168.272 417.371 163.146 421.734 159.888L423.509 158.563C428.624 154.745 435.162 153.375 441.38 154.819L442.949 155.184L457.623 158.578C458.1 158.689 458.593 158.708 459.078 158.636L461.892 158.215C464.279 157.859 465.048 154.798 463.113 153.355C462.426 152.843 462.021 152.036 462.021 151.179V150.992C462.021 149.547 463.023 148.295 464.432 147.978L468.035 147.169C470.244 146.672 471.484 144.317 470.644 142.215C470.085 140.819 468.733 139.903 467.229 139.903H465.621C463.402 139.903 461.362 141.117 460.302 143.066L459.354 144.811C459.217 145.062 459.063 145.303 458.891 145.532C456.381 148.879 451.279 148.616 449.126 145.029L448.758 144.415C447.187 141.796 443.978 140.66 441.109 141.708L432.675 144.787C431.946 145.053 431.259 145.424 430.636 145.887L425.594 149.639C423.676 151.066 420.924 150.194 420.179 147.923C419.658 146.334 420.333 144.598 421.791 143.78L423.337 142.912C424.877 142.047 425.831 140.419 425.831 138.652C425.831 137.124 426.546 135.684 427.763 134.761L434.926 129.327C435.518 128.878 435.995 128.296 436.32 127.628C437.25 125.716 439.341 124.66 441.432 125.046L444.879 125.682C447.766 126.214 450.664 124.814 452.041 122.222L452.745 120.896C453.304 119.844 453.33 118.589 452.816 117.514C451.509 114.786 447.678 114.645 446.174 117.27L444.912 119.473C443.923 121.2 441.564 121.514 440.157 120.107L439.987 119.937C439.53 119.48 438.91 119.223 438.263 119.223C436.917 119.223 435.826 118.132 435.826 116.786V113.053C435.826 111.761 436.232 110.501 436.986 109.452L443.082 100.974C446.344 96.4361 452.006 94.2913 457.456 95.5282L463.125 96.8149C464.087 97.0332 464.878 97.7149 465.235 98.6342L465.274 98.7338C465.831 100.166 465.156 101.783 463.745 102.393L462.983 102.722C462.399 102.975 462.021 103.55 462.021 104.186C462.021 105.067 462.735 105.781 463.616 105.781H465.484C467.142 105.781 468.568 104.605 468.883 102.976L469.145 101.62C469.499 99.7912 470.816 98.2973 472.586 97.716L481.924 94.6485C484.105 93.9323 485.723 92.0868 486.148 89.8317C486.632 87.2605 488.656 85.2567 491.232 84.798L492.212 84.6235C494.216 84.2666 495.999 83.1346 497.174 81.4727L506.581 68.1697C508.685 65.1945 512.352 63.7485 515.921 64.4868L516.691 64.6462C518.818 65.0862 520.646 66.432 521.699 68.3315C523.461 71.5124 527.263 72.9564 530.692 71.7478L533.455 70.7743C535.58 70.0255 537.93 70.2776 539.847 71.4602C542.219 72.9229 545.209 72.9411 547.598 71.5074L551.014 69.4578C553.723 67.8323 556.902 67.1705 560.035 67.5799L570.073 68.8917C573.567 69.3484 577.12 68.8225 580.332 67.3731C583.288 66.0395 586.536 65.4859 589.766 65.7651L601.011 66.7369C602.514 66.8668 603.825 67.8112 604.424 69.1961C604.965 70.4482 604.849 71.8875 604.114 73.0364L603.269 74.356C602.213 76.0059 601.892 78.0208 602.381 79.9175L602.823 81.6311C603.237 83.2344 603.287 84.9099 602.97 86.5352L602.094 91.0269C601.795 92.556 600.725 93.8208 599.266 94.3678C597.391 95.0709 596.209 96.9315 596.37 98.9274L597.586 114.045C597.655 114.893 597.06 115.65 596.22 115.785C595.424 115.912 594.654 115.438 594.41 114.669L591.822 106.527C590.41 102.086 585.818 99.4796 581.281 100.544C579.203 101.032 577.369 102.248 576.112 103.972L575.091 105.371C572.487 108.942 571.781 113.556 573.199 117.742L576.193 126.579C577.346 129.98 576.559 133.738 574.14 136.391L572.403 138.296C571.477 139.312 571.064 140.694 571.281 142.051L571.46 143.166C571.873 145.75 569.57 147.948 567.008 147.414C564.337 146.858 561.99 149.258 562.606 151.916L564.388 159.605C565.159 162.935 563.929 166.409 561.234 168.512L558.05 170.996C556.25 172.401 555.198 174.556 555.198 176.84V180.927C555.198 182.763 553.709 184.251 551.873 184.251H549.532C548.558 184.251 547.844 185.167 548.08 186.112C548.478 187.702 546.397 188.683 545.423 187.364L536.999 175.96C535.814 174.355 533.681 173.775 531.846 174.558L529.038 175.755C527.306 176.495 525.883 177.81 525.009 179.478L520.885 187.351C520.493 188.099 519.456 188.183 518.949 187.508L509.658 175.145C506.713 171.225 502.509 168.437 497.752 167.247L492.465 165.518C490.522 164.882 488.983 167.22 490.336 168.754C490.529 168.972 490.767 169.146 491.034 169.264L491.209 169.34C493.133 170.185 493.527 172.742 491.947 174.128L489.465 176.304C487.946 177.636 485.771 177.916 483.964 177.012L481.824 175.942C478.314 174.187 474.442 177.572 475.712 181.285C476.319 183.059 477.987 184.251 479.862 184.251H479.982C483.268 184.251 485.473 187.625 484.153 190.634L478.803 202.832C478.492 203.541 478.244 204.276 478.061 205.028L475.609 215.124C474.832 218.325 473.375 221.322 471.337 223.911L461.573 236.319C460.042 238.264 457.704 239.399 455.23 239.399C453.036 239.399 450.936 238.506 449.415 236.925L447.253 234.679C444.492 231.81 442.949 227.983 442.949 224.001V212.285L441.733 202.404C441.333 199.15 439.74 196.16 437.262 194.013C435.277 192.293 432.826 191.202 430.22 190.878L429.245 190.757C420.995 189.731 414.801 182.72 414.801 174.407ZM350.513 78.7698L348.753 81.2076C347 83.6352 343.308 83.3783 341.909 80.7313C340.907 78.8356 341.561 76.4871 343.399 75.3827L345.976 73.8342C346.928 73.2622 348.099 73.1878 349.115 73.6348C351.11 74.5115 351.788 77.0036 350.513 78.7698ZM355.17 82.6555L353.395 83.9046C352.637 84.4383 352.186 85.3076 352.186 86.2349C352.186 87.241 352.716 88.1725 353.582 88.6857L357.963 91.2839C360.507 92.7924 362.066 95.5306 362.066 98.4881V98.9739C362.066 100.267 362.439 101.534 363.14 102.62L364.149 104.184C365.551 106.357 368.422 107.028 370.642 105.703C372.498 104.596 373.385 102.384 372.808 100.3L369.856 89.647C368.998 86.5542 366.787 84.016 363.84 82.7437L362.004 81.9506C359.758 80.981 357.17 81.248 355.17 82.6555ZM395.372 56.7428L378.02 66.9207C376.535 67.7915 375.623 69.3837 375.623 71.1049C375.623 72.3455 376.099 73.539 376.952 74.4399L379.981 77.6396C383.646 81.5102 385.129 86.9587 383.933 92.153L381.389 103.195C381.013 104.827 381.412 106.54 382.469 107.838C384.343 110.137 387.716 110.504 390.041 108.661L401.594 99.5031C405.718 96.2332 408.417 91.4929 409.123 86.2767L409.661 82.2975C409.946 80.1934 410.521 78.1389 411.37 76.1927L413.527 71.2474C414.361 69.3362 414.658 67.2341 414.386 65.1668C413.742 60.2629 410.028 56.3237 405.17 55.3926L404.244 55.215C401.199 54.6315 398.046 55.1744 395.372 56.7428ZM264.928 102.965C263.339 94.4428 264.742 76.826 281.796 69.3142C282.15 69.1582 282.504 68.9936 282.859 68.8285L282.859 68.8285C284.353 68.1343 285.868 67.4302 287.491 67.3129C290.85 67.0702 296.078 68.8927 302.069 76.5062C302.287 76.7829 302.493 77.0504 302.693 77.3089L302.693 77.309C304.126 79.1643 305.203 80.5597 307.506 81.5983C311.886 83.5731 314.813 79.6356 317.754 75.6798C320.686 71.735 323.632 67.7719 328.046 69.6355C329.28 70.1567 330.804 71.1912 332.672 72.8746C334.628 74.6374 336.037 76.9305 337.031 79.3684L339.137 84.5345C339.915 86.4414 341.419 87.9603 343.319 88.7558C348.353 90.8643 349.688 97.3778 345.889 101.297L341.085 106.252C338.038 109.394 338.181 114.43 341.4 117.395L343.24 119.09C345.991 121.623 350.384 120.931 352.222 117.675C354.3 113.994 359.491 113.699 361.971 117.122L365.975 122.647C369.088 126.943 368.381 132.909 364.348 136.357L340.816 156.48C339.646 157.48 338.973 158.942 338.973 160.481C338.973 164.211 335.199 166.758 331.74 165.361L329.314 164.382C325.087 162.675 320.476 165.786 320.476 170.345C320.476 172.563 321.619 174.625 323.501 175.8L334.418 182.615C338.197 184.974 342.796 185.63 347.084 184.42C351.359 183.215 355.944 183.862 359.717 186.205L381.575 199.774C386.976 203.127 388.628 210.23 385.259 215.622L364.555 248.766C363.437 250.555 362.571 252.489 361.981 254.515L360.368 260.055C359.752 262.169 359.774 264.417 360.431 266.518L362.373 272.734C362.669 273.682 362.318 274.712 361.505 275.282C360.394 276.059 358.853 275.701 358.2 274.512L350.646 260.771C349.32 258.357 348.624 255.648 348.624 252.894V228.911C348.624 223.947 346.571 219.204 342.952 215.807L340.769 213.758C337.517 210.706 336.106 206.17 337.054 201.812C338.203 196.527 335.876 191.096 331.257 188.282L316.053 179.018C314.881 178.303 313.887 177.331 313.147 176.175L302.277 159.198C301.61 158.154 300.007 158.488 299.811 159.711C299.591 161.084 297.69 161.266 297.213 159.96L292.756 147.741C292.475 146.971 292.399 146.143 292.535 145.335L294.915 131.197C295.699 126.544 295.031 121.763 293.002 117.503L286.94 104.773C285.529 101.809 282.539 99.9214 279.256 99.9214H278.971C277.348 99.9214 275.767 100.439 274.457 101.398L269.758 104.84C268.148 106.02 265.858 105.376 265.097 103.53C265.022 103.346 264.964 103.161 264.928 102.965ZM558.866 194.082L558.088 194.999C556.529 196.835 556.672 199.567 558.412 201.23L559.167 201.951C559.976 202.724 561.147 202.987 562.209 202.633C563.442 202.222 564.274 201.068 564.274 199.767V196.068C564.274 194.945 563.661 193.912 562.675 193.374C561.398 192.678 559.808 192.974 558.866 194.082ZM558.07 232.018V234.602C558.07 239.535 562.069 243.535 567.003 243.535C568.01 243.535 569.01 243.364 569.961 243.031L571.408 242.523C573.77 241.695 576.353 241.759 578.671 242.705C580.011 243.252 581.219 244.077 582.218 245.125L586.324 249.437C587.161 250.315 588.194 250.981 589.339 251.38C592.744 252.567 596.514 251.208 598.38 248.123L599.975 245.485C600.753 244.198 601.27 242.769 601.495 241.282L602.466 234.876C602.733 233.116 602.406 231.317 601.537 229.763L594.906 217.901C594.006 216.291 591.618 216.529 591.054 218.286C590.774 219.16 589.962 219.752 589.044 219.752H588.478C587.317 219.752 586.269 219.057 585.818 217.988L585.425 217.056C584.386 214.593 581.412 213.613 579.113 214.976L572.428 218.937C571.516 219.478 570.531 219.886 569.504 220.15L566.724 220.863C561.631 222.17 558.07 226.761 558.07 232.018ZM543.133 197.892L546.708 203.521C547.13 204.185 547.862 204.587 548.648 204.587C549.918 204.587 550.947 203.558 550.947 202.288V202.083C550.947 201.475 550.726 200.888 550.325 200.432L546.129 195.648C545.58 195.022 544.683 194.832 543.927 195.183C542.898 195.661 542.525 196.935 543.133 197.892ZM479.08 222.695L482.721 217.11C483.341 216.16 484.655 215.972 485.516 216.71C486.148 217.253 486.348 218.147 486.005 218.907L483.39 224.707C483.14 225.261 482.698 225.706 482.145 225.957L481.958 226.043C480.802 226.569 479.439 226.058 478.913 224.903C478.588 224.187 478.65 223.354 479.08 222.695ZM589.934 207.397L590.399 207.825C591.109 208.476 592.038 208.838 593.002 208.838H595.211C596.174 208.838 597.125 209.051 597.995 209.463L601.501 211.12C602.361 211.527 603.389 211.251 603.931 210.469C604.551 209.573 604.315 208.343 603.407 207.741L594.361 201.741C593.771 201.349 593.078 201.14 592.37 201.14C589.085 201.14 587.514 205.176 589.934 207.397ZM616.431 264.041L611.135 268.523C610.53 269.035 610.332 269.883 610.648 270.61C611.002 271.425 611.899 271.858 612.758 271.629L614.398 271.192C615.663 270.855 616.663 269.884 617.038 268.63L618.085 265.124C618.378 264.141 617.214 263.379 616.431 264.041ZM620.823 258.2L622.839 251.562C623.137 250.581 624.529 250.589 624.816 251.573L625.839 255.086C626.205 256.344 625.892 257.701 625.012 258.671L623.872 259.929C623.275 260.587 622.286 260.71 621.546 260.217C620.886 259.778 620.592 258.958 620.823 258.2Z" fill="#A7CF75"/>
</g>
<g opacity="0.6" filter="url(#filter3_f_103_2)">
<path d="M214.93 41.0068L213.933 42.3145C211.528 45.4696 207.403 46.7773 203.619 45.5839C202.704 45.295 201.749 45.1481 200.789 45.1481H192.569C190.03 45.1481 187.645 46.3633 186.153 48.4169C183.575 51.966 184.368 56.9341 187.923 59.5042L192.248 62.6303C195.115 64.7032 198.692 65.5435 202.183 64.964L209.472 63.7538C210.71 63.5483 211.923 63.2126 213.09 62.7524C219.524 60.2156 226.844 61.6307 231.869 66.3824L238.597 72.7442C239.808 73.8902 241.123 74.9229 242.523 75.8295C254.71 83.7212 270.941 80.713 279.491 68.9776L283.522 63.4448C285.767 60.3628 286.573 56.4616 285.732 52.7422L284.315 46.472C283.375 42.315 279.088 39.8449 275.02 41.1173C273.517 41.5874 272.207 42.5311 271.285 43.8074L270.866 44.3868C268.452 47.727 264.152 49.1171 260.24 47.8218L232.859 38.7553L228.302 37.0922C223.468 35.3281 218.049 36.9145 214.93 41.0068Z" fill="white"/>
<path d="M127.026 157.404L126.029 158.711C123.624 161.866 119.499 163.174 115.715 161.981L115.54 161.925C114.74 161.673 113.907 161.545 113.069 161.545H110.424C105.782 161.545 102.651 166.288 104.475 170.556C107 177.355 113.993 181.408 121.148 180.22L121.768 180.117C122.873 179.934 123.955 179.634 124.997 179.224L125.186 179.149C131.62 176.612 138.94 178.027 143.965 182.779L150.692 189.141C151.904 190.287 153.218 191.32 154.619 192.226C166.806 200.118 183.037 197.11 191.586 185.374L193.392 182.897C197.051 177.873 198.365 171.514 196.995 165.452C195.526 158.954 191.135 153.501 185.101 150.679L184.767 150.523C179.424 147.168 172.877 146.33 166.862 148.23L149.024 153.866C146.385 154.7 143.545 154.638 140.946 153.689L140.398 153.489C135.564 151.725 130.145 153.311 127.026 157.404Z" fill="white"/>
<path d="M337.274 236.004L293.382 246.711C290.08 247.517 286.62 247.402 283.378 246.38L281.853 245.898C281.053 245.646 280.22 245.518 279.381 245.518H276.737C272.095 245.518 268.964 250.261 270.788 254.529C273.313 261.328 280.305 265.381 287.46 264.194L289.743 263.815L327.81 260.586C339.966 259.554 351.985 263.758 360.849 272.14L361.879 273.114C363.091 274.26 364.405 275.293 365.805 276.199C377.993 284.091 394.223 281.083 402.773 269.348L404.578 266.87C408.238 261.846 409.552 255.488 408.181 249.425C406.713 242.927 402.322 237.474 396.288 234.652L395.954 234.496C390.611 231.141 384.064 230.303 378.049 232.203L362.948 236.975C358.534 238.369 353.784 238.265 349.436 236.678C345.538 235.255 341.305 235.021 337.274 236.004Z" fill="white"/>
<path d="M68.1917 85.1247L69.1884 86.4323C71.5933 89.5874 75.7188 90.8952 79.5023 89.7018L79.6777 89.6464C80.4772 89.3942 81.3106 89.2659 82.1489 89.2659H84.7939C89.435 89.2659 92.5661 94.009 90.7421 98.2768C88.2172 105.076 81.2249 109.129 74.0699 107.942L73.449 107.838C72.3443 107.655 71.262 107.355 70.2202 106.945L70.0314 106.87C63.5977 104.333 56.2773 105.749 51.2525 110.5L44.525 116.862C43.3131 118.008 41.9989 119.041 40.5989 119.947C28.4112 127.839 12.1809 124.831 3.63099 113.095L1.82583 110.618C-1.83408 105.594 -3.1474 99.2355 -1.77715 93.1731C-0.308489 86.6754 4.08206 81.2218 10.1165 78.3999L10.4501 78.2438C15.7929 74.8889 22.3399 74.0507 28.3556 75.9514L46.1934 81.5874C48.8319 82.4211 51.6721 82.3587 54.2715 81.41L54.8193 81.2101C59.653 79.4459 65.0723 81.0324 68.1917 85.1247Z" fill="white"/>
</g>
<g opacity="0.4" filter="url(#filter4_f_103_2)">
<path d="M140.026 -11.8782V-11.8782C39.717 95.4934 101.402 271.337 246.805 292.514L293.425 299.304L-119.681 254.105L140.026 -11.8782Z" fill="#1E819A"/>
</g>
<g opacity="0.3" filter="url(#filter5_f_103_2)">
<path d="M173.775 319.243V319.243C280.528 218.276 229.828 38.9567 86.0115 8.83426L39.9004 -0.823719L449.423 69.8176L173.775 319.243Z" fill="white"/>
</g>
</g>
</g>
<defs>
<filter id="filter0_d_103_2" x="0.916607" y="0.512508" width="307.167" height="307.167" filterUnits="userSpaceOnUse" color-interpolation-filters="sRGB">
<feFlood flood-opacity="0" result="BackgroundImageFix"/>
<feColorMatrix in="SourceAlpha" type="matrix" values="0 0 0 0 0 0 0 0 0 0 0 0 0 0 0 0 0 0 127 0" result="hardAlpha"/>
<feOffset/>
<feGaussianBlur stdDeviation="16.1667"/>
<feComposite in2="hardAlpha" operator="out"/>
<feColorMatrix type="matrix" values="0 0 0 0 0 0 0 0 0 0.458156 0 0 0 0 0.566667 0 0 0 0.6 0"/>
<feBlend mode="normal" in2="BackgroundImageFix" result="effect1_dropShadow_103_2"/>
<feBlend mode="normal" in="SourceGraphic" in2="effect1_dropShadow_103_2" result="shape"/>
</filter>
<filter id="filter1_d_103_2" x="-107.4" y="45.181" width="377.723" height="240.213" filterUnits="userSpaceOnUse" color-interpolation-filters="sRGB">
<feFlood flood-opacity="0" result="BackgroundImageFix"/>
<feColorMatrix in="SourceAlpha" type="matrix" values="0 0 0 0 0 0 0 0 0 0 0 0 0 0 0 0 0 0 127 0" result="hardAlpha"/>
<feOffset dy="1.61667"/>
<feGaussianBlur stdDeviation="4.04167"/>
<feComposite in2="hardAlpha" operator="out"/>
<feColorMatrix type="matrix" values="0 0 0 0 0.160417 0 0 0 0 0.619952 0 0 0 0 0.7 0 0 0 1 0"/>
<feBlend mode="normal" in2="BackgroundImageFix" result="effect1_dropShadow_103_2"/>
<feBlend mode="normal" in="SourceGraphic" in2="effect1_dropShadow_103_2" result="shape"/>
</filter>
<filter id="filter2_d_103_2" x="256.35" y="45.181" width="377.723" height="240.213" filterUnits="userSpaceOnUse" color-interpolation-filters="sRGB">
<feFlood flood-opacity="0" result="BackgroundImageFix"/>
<feColorMatrix in="SourceAlpha" type="matrix" values="0 0 0 0 0 0 0 0 0 0 0 0 0 0 0 0 0 0 127 0" result="hardAlpha"/>
<feOffset dy="1.61667"/>
<feGaussianBlur stdDeviation="4.04167"/>
<feComposite in2="hardAlpha" operator="out"/>
<feColorMatrix type="matrix" values="0 0 0 0 0.160417 0 0 0 0 0.619952 0 0 0 0 0.7 0 0 0 1 0"/>
<feBlend mode="normal" in2="BackgroundImageFix" result="effect1_dropShadow_103_2"/>
<feBlend mode="normal" in="SourceGraphic" in2="effect1_dropShadow_103_2" result="shape"/>
</filter>
<filter id="filter3_f_103_2" x="-584.712" y="28.296" width="1001.51" height="260.381" filterUnits="userSpaceOnUse" color-interpolation-filters="sRGB">
<feFlood flood-opacity="0" result="BackgroundImageFix"/>
<feBlend mode="normal" in="SourceGraphic" in2="BackgroundImageFix" result="shape"/>
<feGaussianBlur stdDeviation="4.04167" result="effect1_foregroundBlur_103_2"/>
</filter>
<filter id="filter4_f_103_2" x="-135.848" y="-28.0449" width="445.439" height="343.515" filterUnits="userSpaceOnUse" color-interpolation-filters="sRGB">
<feFlood flood-opacity="0" result="BackgroundImageFix"/>
<feBlend mode="normal" in="SourceGraphic" in2="BackgroundImageFix" result="shape"/>
<feGaussianBlur stdDeviation="8.08333" result="effect1_foregroundBlur_103_2"/>
</filter>
<filter id="filter5_f_103_2" x="7.56706" y="-33.1571" width="474.19" height="384.734" filterUnits="userSpaceOnUse" color-interpolation-filters="sRGB">
<feFlood flood-opacity="0" result="BackgroundImageFix"/>
<feBlend mode="normal" in="SourceGraphic" in2="BackgroundImageFix" result="shape"/>
<feGaussianBlur stdDeviation="16.1667" result="effect1_foregroundBlur_103_2"/>
</filter>
<linearGradient id="paint0_linear_103_2" x1="95.4666" y1="158.86" x2="301.795" y2="141.33" gradientUnits="userSpaceOnUse">
<stop stop-color="#228EA9"/>
<stop offset="1" stop-color="#02DEFE"/>
</linearGradient>
<clipPath id="clip0_103_2">
<rect x="33.2499" y="32.8458" width="242.5" height="242.5" rx="121.25" fill="white"/>
</clipPath>
</defs>
</svg>
